# xmcd
#
# Track frame offsets:
#	150
#	10817
#	19930
#	32082
#	44060
#	54867
#	66992
#	79405
#	89482
#	100290
#	114405
#	124472
#	136930
#	149515
#	161822
#	173880
#	184897
#	194040
#	205702
#	219607
#
# Disc length: 3070
#
# Revision: 2
# Processed by: cddbd v1.5.1PL0 Copyright (c) Steve Scherf et al.
# Submitted via: EasyCDDAExtractor 4.5.2.1
# Normalized: r0:DSETVAR1,TDELIM( - ),TSWAP
#
DISCID=330bfc14
DTITLE=Various Artist - Country Crossroads, Disc 2
DYEAR=1996
DGENRE=Country
TTITLE0=Faron Young - If You Ain't Lovin' (You Ain't Livin')
TTITLE1=Patsy Cline - Walkin' After Midnight
TTITLE2=Ray Price - Release Me
TTITLE3=Jean Sheppard - A Satisfied Man
TTITLE4=Hank Locklin - From Here To There To You
TTITLE5=Eddy Arnold - I Want To Go With You
TTITLE6=Webb Pierce - Back Street Affair
TTITLE7=Loretta Lynn - You Ain't Woman Enough
TTITLE8=Charley Pride - The Easy Part's Over
TTITLE9=Jim Reeves - This Is It
TTITLE10=George Hamilton, IV - Abilene
TTITLE11=Hank Snow - I've Been Everywhere
TTITLE12=Dottie West - Would You Hold It Against Me
TTITLE13=Hank Williams and The Drifting Cowboys - You're Cheatin' Heart
TTITLE14=Hank Thompson - The Wild Side Of Life
TTITLE15=Webb Pierce - There Stands The Glass
TTITLE16=Don Gibson - Blue, Blue Day
TTITLE17=Porter Wagoner - Misery Loves Company
TTITLE18=Dolly Parton - Just Because I'm A Woman
TTITLE19=George Jones - Tender Years
EXTD=
EXTT0=
EXTT1=
EXTT2=
EXTT3=
EXTT4=
EXTT5=
EXTT6=
EXTT7=
EXTT8=
EXTT9=
EXTT10=
EXTT11=
EXTT12=
EXTT13=
EXTT14=
EXTT15=
EXTT16=
EXTT17=
EXTT18=
EXTT19=
PLAYORDER=
